<?xml version="1.0" encoding="UTF-8"?>
<svg id="Layer_1" data-name="Layer 1" xmlns="http://www.w3.org/2000/svg" viewBox="0 0 1080 230">
  <defs>
    <style>
      .cls-1 {
        fill: #fff;
        stroke-width: 0px;
      }
    </style>
  </defs>
  <path class="cls-1" d="m97.41,142.58H32.47l-11.96,33.38H0L53.83,26.74h22.43l53.62,149.22h-20.51l-11.96-33.38Zm-5.55-15.93l-26.91-75.79-26.92,75.79h53.83Z"/>
  <path class="cls-1" d="m218.74,175.95l-45.93-52.11v52.11h-19.44V16.62h19.44v93.66l45.07-52.32h27.13l-55.11,58.78,55.32,59.21h-26.49Z"/>
  <path class="cls-1" d="m335.37,41.81v50.17h54.26v16.15h-54.26v51.68h60.67v16.15h-80.1V25.66h80.1v16.15h-60.67Z"/>
  <path class="cls-1" d="m486.6,175.95l-27.77-43.93-26.7,43.93h-20.29l37.81-58.57-37.81-59.43h22l27.77,43.71,26.49-43.71h20.29l-37.6,58.35,37.81,59.64h-22Z"/>
  <path class="cls-1" d="m564.46,60.87c7.62-4.52,16.48-6.78,26.59-6.78s19.83,2.51,28.3,7.54c8.47,5.03,15.13,12.1,19.97,21.21,4.84,9.12,7.26,19.7,7.26,31.76s-2.42,22.54-7.26,31.87c-4.84,9.33-11.5,16.58-19.97,21.75-8.48,5.17-17.91,7.75-28.3,7.75s-18.76-2.26-26.38-6.78c-7.62-4.52-13.42-10.15-17.41-16.9v77.73h-19.44V56.02h19.44v21.75c3.84-6.75,9.57-12.38,17.19-16.9Zm56.93,30.47c-3.56-6.6-8.37-11.63-14.42-15.07-6.05-3.44-12.71-5.17-19.97-5.17s-13.71,1.76-19.76,5.28c-6.05,3.52-10.89,8.61-14.52,15.29-3.63,6.68-5.45,14.39-5.45,23.15s1.81,16.69,5.45,23.36c3.63,6.68,8.47,11.77,14.52,15.29,6.05,3.52,12.64,5.28,19.76,5.28s13.92-1.76,19.97-5.28c6.05-3.52,10.86-8.61,14.42-15.29,3.56-6.68,5.34-14.53,5.34-23.58s-1.78-16.65-5.34-23.26Z"/>
  <path class="cls-1" d="m706.29,61.4c6.33-3.73,14.06-5.6,23.18-5.6v20.24h-5.13c-21.79,0-32.68,11.92-32.68,35.74v64.17h-19.44V57.96h19.44v19.16c3.42-6.75,8.29-11.98,14.63-15.72Z"/>
  <path class="cls-1" d="m858.06,122.34h-93.56c.71,11.63,4.66,20.71,11.85,27.24,7.19,6.53,15.91,9.8,26.17,9.8,8.4,0,15.41-1.97,21.04-5.92,5.62-3.95,9.58-9.22,11.86-15.83h20.93c-3.13,11.34-9.4,20.56-18.8,27.67-9.4,7.11-21.08,10.66-35.03,10.66-11.11,0-21.04-2.51-29.8-7.54-8.76-5.02-15.63-12.17-20.61-21.42-4.99-9.26-7.48-19.99-7.48-32.19s2.42-22.89,7.26-32.08c4.84-9.18,11.64-16.26,20.4-21.21,8.76-4.95,18.83-7.43,30.23-7.43s20.93,2.44,29.48,7.32c8.54,4.88,15.13,11.59,19.76,20.13,4.63,8.54,6.94,18.19,6.94,28.96,0,3.73-.21,7.68-.64,11.84Zm-24.35-35.2c-3.28-5.38-7.73-9.47-13.35-12.27-5.63-2.8-11.86-4.2-18.69-4.2-9.83,0-18.19,3.16-25.1,9.47-6.91,6.32-10.86,15.07-11.86,26.27h73.91c0-7.46-1.64-13.89-4.91-19.27Z"/>
  <path class="cls-1" d="m901.64,171.33c-7.12-3.09-12.75-7.39-16.88-12.92-4.13-5.52-6.41-11.88-6.84-19.06h20.08c.57,5.89,3.31,10.7,8.22,14.43,4.91,3.73,11.36,5.6,19.33,5.6,7.4,0,13.24-1.65,17.52-4.95,4.27-3.3,6.41-7.46,6.41-12.49s-2.28-9.01-6.84-11.52c-4.56-2.51-11.61-4.99-21.15-7.43-8.69-2.29-15.77-4.63-21.25-7-5.48-2.37-10.18-5.88-14.1-10.55-3.92-4.66-5.87-10.8-5.87-18.41,0-6.03,1.78-11.55,5.34-16.58,3.56-5.02,8.61-9.01,15.17-11.95,6.55-2.94,14.03-4.41,22.43-4.41,12.96,0,23.42,3.3,31.4,9.9,7.97,6.6,12.25,15.65,12.82,27.13h-19.44c-.43-6.17-2.88-11.12-7.37-14.86-4.49-3.73-10.5-5.6-18.05-5.6-6.98,0-12.53,1.51-16.66,4.52-4.13,3.02-6.19,6.96-6.19,11.84,0,3.87,1.24,7.07,3.74,9.58,2.49,2.51,5.62,4.52,9.4,6.03,3.77,1.51,9.01,3.2,15.7,5.06,8.4,2.3,15.24,4.56,20.51,6.78,5.27,2.23,9.79,5.56,13.56,10.01,3.77,4.45,5.73,10.26,5.87,17.44,0,6.46-1.78,12.27-5.34,17.44-3.56,5.17-8.58,9.23-15.06,12.17-6.48,2.94-13.92,4.41-22.32,4.41-8.97,0-17.02-1.54-24.14-4.63Z"/>
  <path class="cls-1" d="m1013.14,171.33c-7.12-3.09-12.75-7.39-16.88-12.92-4.13-5.52-6.41-11.88-6.84-19.06h20.08c.57,5.89,3.31,10.7,8.22,14.43,4.91,3.73,11.36,5.6,19.33,5.6,7.4,0,13.24-1.65,17.52-4.95,4.27-3.3,6.41-7.46,6.41-12.49s-2.28-9.01-6.84-11.52c-4.56-2.51-11.61-4.99-21.15-7.43-8.69-2.29-15.77-4.63-21.25-7-5.48-2.37-10.18-5.88-14.1-10.55-3.92-4.66-5.87-10.8-5.87-18.41,0-6.03,1.78-11.55,5.34-16.58,3.56-5.02,8.61-9.01,15.17-11.95,6.55-2.94,14.03-4.41,22.43-4.41,12.96,0,23.42,3.3,31.4,9.9,7.97,6.6,12.25,15.65,12.82,27.13h-19.44c-.43-6.17-2.88-11.12-7.37-14.86-4.49-3.73-10.5-5.6-18.05-5.6-6.98,0-12.53,1.51-16.66,4.52-4.13,3.02-6.19,6.96-6.19,11.84,0,3.87,1.24,7.07,3.74,9.58,2.49,2.51,5.62,4.52,9.4,6.03,3.77,1.51,9.01,3.2,15.7,5.06,8.4,2.3,15.24,4.56,20.51,6.78,5.27,2.23,9.79,5.56,13.56,10.01,3.77,4.45,5.73,10.26,5.87,17.44,0,6.46-1.78,12.27-5.34,17.44-3.56,5.17-8.58,9.23-15.06,12.17-6.48,2.94-13.92,4.41-22.32,4.41-8.97,0-17.02-1.54-24.14-4.63Z"/>
  <g>
    <rect class="cls-1" x="271.15" y="73.73" width="19.44" height="100.29"/>
    <path class="cls-1" d="m310.87,30.28c-4.18,1.06-8.3,1.98-12.35,3.17-4.07,1.19-7.77,3.13-10.52,6.55-1.94,2.41-3.25,5.17-4.07,8.12-1.14,4.08-2.09,8.22-3.13,12.36-.06-.2-.13-.44-.2-.69-1.13-4.46-2.07-8.98-3.44-13.37-2.1-6.73-6.89-10.87-13.51-12.81-4.01-1.18-8.12-2.02-12.18-3.02-.19-.05-.39-.09-.6-.34.93-.19,1.87-.33,2.79-.56,3.7-.96,7.44-1.8,11.08-2.96,6.9-2.21,11.07-7.15,13.02-14.02,1.09-3.87,1.9-7.82,2.84-11.74C280.66.7,280.74.45,280.85,0c.77,3.39,1.41,6.58,2.22,9.73,1.06,4.09,2.44,8.06,5.24,11.36,2.68,3.16,6.19,5,10.04,6.13,3.91,1.14,7.92,1.95,11.88,2.9.2.05.39.1.63.17Z"/>
  </g>
</svg>