<?xml version="1.0" encoding="UTF-8"?>
<svg xmlns="http://www.w3.org/2000/svg" viewBox="0 0 512 512">
  <defs>
    <style>
      .cls-1 {
        fill: #00c8ff;
      }

      .cls-2 {
        fill: #f0f0f0;
      }

      .cls-3 {
        mix-blend-mode: hard-light;
        opacity: .1;
      }

      .cls-4 {
        isolation: isolate;
      }

      .cls-5 {
        fill: none;
      }
    </style>
  </defs>
  <g class="cls-4">
    <g id="Layer_1" data-name="Layer 1">
      <g>
        <g>
          <polygon class="cls-2" points="512 176.77 483.19 147.96 432.08 162.36 430.64 176.77 429.92 176.77 311.31 303.18 333.47 176.77 304.66 147.96 288.02 169.57 288.02 176.77 263.29 176.77 219.5 424.67 183.59 436.07 212.4 464.88 282.58 464.88 305.15 337.65 358.97 429.83 350.62 436.07 379.44 464.88 465.21 464.88 375.33 317.95 512 176.77"/>
          <path class="cls-1" d="m346.52,289.14l89.88,146.93h-85.78l-74.28-127.23-22.57,127.23h-70.18l50.89-288.11h70.18l-22.16,126.41,118.61-126.41h82.08l-136.67,141.18Z"/>
          <polygon class="cls-3" points="333.46 176.77 324.13 230 282.5 274.37 237.59 322.21 195.85 366.71 234.48 147.96 304.65 147.96 333.46 176.77"/>
        </g>
        <g>
          <path class="cls-2" d="m292.22,47.12s-20.78,14.41-22.22,15.85c-.73.73-2.56,6.97-4.19,12.97h-19.47l-109.58,217.52-33.24-217.52-28.81-28.81-10.56,28.81H28.82l46.17,259.3h-23.68l28.81,28.81h87.83L321.03,75.93l-28.81-28.81Z"/>
          <path class="cls-1" d="m217.53,47.12l-109.58,217.52-23.47-153.49-9.78-64.03H0l23.06,129.49,28.25,158.62h87.82L292.22,47.12h-74.69Z"/>
          <line class="cls-5" x1="84.24" y1="111.41" x2="82.11" y2="109.28"/>
          <polygon class="cls-3" points="113.39 140.54 84.24 111.41 42.97 155.39 23.06 176.61 0 47.12 74.69 47.12 74.69 47.15 74.71 47.12 103.52 75.93 113.39 140.54"/>
        </g>
      </g>
    </g>
  </g>
</svg>